<?xml version="1.0"?>
<svg xmlns="http://www.w3.org/2000/svg" xmlns:xlink="http://www.w3.org/1999/xlink" version="1.1" id="Layer_1" x="0px" y="0px" width="100%" viewBox="0 0 500 500" enable-background="new 0 0 500 500" xml:space="preserve" style="background-color:transparent;">
<path fill="none" opacity="1.000000" stroke="none" d=" M269.000000,501.000000   C179.333359,501.000000 90.166710,501.000000 1.000048,501.000000   C1.000032,334.333405 1.000032,167.666794 1.000016,1.000137   C167.666565,1.000092 334.333130,1.000092 500.999756,1.000046   C500.999847,167.666519 500.999847,334.333038 500.999939,500.999786   C423.833344,501.000000 346.666656,501.000000 269.000000,501.000000  M120.344795,168.608261   C123.536636,171.782318 126.728470,174.956375 130.244934,178.705429   C133.794159,182.158997 137.343384,185.612564 141.264969,189.619141   C144.514786,192.708466 147.764603,195.797791 151.292130,199.500580   C154.752808,202.941376 158.213486,206.382172 162.167740,210.328934   C169.539642,217.852524 176.911560,225.376099 183.812698,233.443573   C157.050781,253.484833 130.288849,273.526093 103.040260,293.931793   C97.759743,276.047974 92.605690,258.592468 87.451637,241.136948   C87.023605,241.264206 86.595573,241.391449 86.167542,241.518692   C80.873360,287.939728 75.579170,334.360779 70.231422,381.251465   C116.884529,389.279938 163.192398,397.248993 209.500275,405.218048   C209.609406,404.830994 209.718521,404.443939 209.827652,404.056885   C194.456284,394.239655 179.084915,384.422424 163.098755,374.212524   C194.310120,350.893005 225.195847,327.816742 256.683899,305.063995   C258.932495,307.264923 261.196014,309.450897 263.427338,311.669189   C279.985046,328.130402 296.536316,344.598083 313.377686,361.646851   C313.889740,362.069183 314.341370,362.618652 314.922791,362.895020   C325.978973,368.150238 336.704834,374.364502 348.199219,378.371979   C365.697113,384.472565 383.729553,389.039917 401.975128,394.810059   C410.640228,397.874207 419.120697,401.789001 428.031128,403.722595   C434.683960,405.166260 437.555817,401.609924 437.017273,394.742859   C436.250671,384.967621 432.129089,376.300110 427.220856,367.155945   C420.566559,342.543823 414.183136,317.825439 403.229889,294.659790   C400.789337,289.498138 397.193329,284.882874 393.818024,279.412933   C380.253571,265.840240 366.679077,252.277557 353.141296,238.678329   C351.879059,237.410339 350.849548,235.910736 350.281586,234.009750   C391.097931,203.418381 431.914246,172.827011 472.942810,142.076584   C452.655304,115.012627 432.739502,88.444550 412.755737,61.785824   C367.584503,95.704643 322.746552,129.373199 277.317657,162.743835   C275.899719,161.359024 274.477509,159.978607 273.064575,158.588699   C262.714020,148.406815 252.365326,138.223007 241.743271,127.425545   C238.491928,124.284119 235.240585,121.142700 231.737579,117.384842   C228.529221,114.187904 225.320877,110.990967 221.758881,107.241440   C218.496506,104.161423 215.234146,101.081406 211.725113,97.383186   C208.150528,93.915115 204.575943,90.447044 200.758331,86.359398   C197.573914,83.541122 194.389496,80.722839 191.111221,77.211563   C187.176071,73.198723 183.588974,68.753006 179.239288,65.255745   C167.116074,55.508408 151.456619,56.283569 140.338348,67.164597   C126.675171,80.536209 113.243820,94.146233 99.804970,107.744827   C93.891045,113.729057 91.391533,121.051804 91.696892,129.493912   C92.188835,143.094742 101.789047,150.452637 110.996666,158.846710   C114.029129,161.898331 117.061592,164.949936 120.344795,168.608261  z"/>
<path fill="#FFCC4D" opacity="1.000000" stroke="none" d=" M349.712006,234.518646   C350.849548,235.910736 351.879059,237.410339 353.141296,238.678329   C366.679077,252.277557 380.253571,265.840240 393.809265,280.008728   C369.422394,305.036499 345.050385,329.474640 320.656738,353.891174   C318.201294,356.348877 315.615112,358.675995 313.089630,361.063721   C296.536316,344.598083 279.985046,328.130402 263.427338,311.669189   C261.196014,309.450897 258.932495,307.264923 256.243286,304.610565   C235.202576,283.475494 214.613953,262.782379 193.990265,242.124298   C190.837723,238.966507 187.523102,235.970520 184.283463,232.899689   C176.911560,225.376099 169.539642,217.852524 162.010529,209.746643   C162.895813,207.897583 163.843262,206.536240 164.995316,205.378510   C177.889038,192.421432 190.826370,179.507721 203.727661,166.558151   C216.504913,153.733093 229.254410,140.880386 242.016083,128.039795   C252.365326,138.223007 262.714020,148.406815 273.064575,158.588699   C274.477509,159.978607 275.899719,161.359024 277.736084,163.205505   C300.845306,186.376938 323.531006,209.091705 346.243042,231.780167   C347.278229,232.814270 348.550262,233.611237 349.712006,234.518646  z"/>
<path fill="#010101" opacity="1.000000" stroke="none" d=" M184.048080,233.171631   C187.523102,235.970520 190.837723,238.966507 193.990265,242.124298   C214.613953,262.782379 235.202576,283.475494 255.942139,304.448822   C225.195847,327.816742 194.310120,350.893005 163.098755,374.212524   C179.084915,384.422424 194.456284,394.239655 209.827652,404.056885   C209.718521,404.443939 209.609406,404.830994 209.500275,405.218048   C163.192398,397.248993 116.884529,389.279938 70.231422,381.251465   C75.579170,334.360779 80.873360,287.939728 86.167542,241.518692   C86.595573,241.391449 87.023605,241.264206 87.451637,241.136948   C92.605690,258.592468 97.759743,276.047974 103.040260,293.931793   C130.288849,273.526093 157.050781,253.484833 184.048080,233.171631  z"/>
<path fill="#010101" opacity="1.000000" stroke="none" d=" M349.996796,234.264191   C348.550262,233.611237 347.278229,232.814270 346.243042,231.780167   C323.531006,209.091705 300.845306,186.376938 278.031555,163.354477   C322.746552,129.373199 367.584503,95.704643 412.755737,61.785824   C432.739502,88.444550 452.655304,115.012627 472.942810,142.076584   C431.914246,172.827011 391.097931,203.418381 349.996796,234.264191  z"/>
<path fill="#D99E82" opacity="1.000000" stroke="none" d=" M313.233643,361.355286   C315.615112,358.675995 318.201294,356.348877 320.656738,353.891174   C345.050385,329.474640 369.422394,305.036499 393.964905,280.310242   C397.193329,284.882874 400.789337,289.498138 403.229889,294.659790   C414.183136,317.825439 420.566559,342.543823 426.877045,367.775635   C409.572601,372.162598 404.165375,377.756897 401.535004,394.258392   C383.729553,389.039917 365.697113,384.472565 348.199219,378.371979   C336.704834,374.364502 325.978973,368.150238 314.922791,362.895020   C314.341370,362.618652 313.889740,362.069183 313.233643,361.355286  z"/>
<path fill="#EA5A6F" opacity="1.000000" stroke="none" d=" M110.925514,158.184280   C101.789047,150.452637 92.188835,143.094742 91.696892,129.493912   C91.391533,121.051804 93.891045,113.729057 99.804970,107.744827   C113.243820,94.146233 126.675171,80.536209 140.338348,67.164597   C151.456619,56.283569 167.116074,55.508408 179.239288,65.255745   C183.588974,68.753006 187.176071,73.198723 190.817535,77.667252   C164.335358,104.253395 138.145279,130.382263 111.971710,156.527649   C111.521049,156.977829 111.269806,157.627625 110.925514,158.184280  z"/>
<path fill="#CDD5DA" opacity="1.000000" stroke="none" d=" M241.879669,127.732681   C229.254410,140.880386 216.504913,153.733093 203.727661,166.558151   C190.826370,179.507721 177.889038,192.421432 164.995316,205.378510   C163.843262,206.536240 162.895813,207.897583 161.763733,209.493668   C158.213486,206.382172 154.752808,202.941376 151.309937,198.911453   C176.386124,173.233688 201.440140,148.140656 226.512329,123.065796   C228.269150,121.308815 230.160461,119.686325 231.989227,118.001282   C235.240585,121.142700 238.491928,124.284119 241.879669,127.732681  z"/>
<path fill="#CBD5DC" opacity="1.000000" stroke="none" d=" M211.971786,98.001389   C215.234146,101.081406 218.496506,104.161423 221.630524,107.692169   C195.014038,134.578079 168.524689,161.012070 142.047653,187.458359   C141.586945,187.918503 141.274323,188.526901 140.892609,189.066132   C137.343384,185.612564 133.794159,182.158997 130.394989,178.269302   C131.164719,177.282166 131.811356,176.758408 132.400208,176.176208   C157.673752,151.188202 182.938721,126.191498 208.222198,101.213524   C209.390045,100.059799 210.718262,99.068390 211.971786,98.001389  z"/>
<path fill="#9AABB6" opacity="1.000000" stroke="none" d=" M211.848450,97.692284   C210.718262,99.068390 209.390045,100.059799 208.222198,101.213524   C182.938721,126.191498 157.673752,151.188202 132.400208,176.176208   C131.811356,176.758408 131.164719,177.282166 130.232666,177.981812   C126.728470,174.956375 123.536636,171.782318 120.515450,168.168518   C146.979706,141.481125 173.275116,115.235313 199.554901,88.973839   C200.128632,88.400520 200.523209,87.647934 201.001358,86.978973   C204.575943,90.447044 208.150528,93.915115 211.848450,97.692284  z"/>
<path fill="#99AAB5" opacity="1.000000" stroke="none" d=" M141.078796,189.342636   C141.274323,188.526901 141.586945,187.918503 142.047653,187.458359   C168.524689,161.012070 195.014038,134.578079 221.807343,107.968460   C225.320877,110.990967 228.529221,114.187904 231.863403,117.693069   C230.160461,119.686325 228.269150,121.308815 226.512329,123.065796   C201.440140,148.140656 176.386124,173.233688 151.171082,198.604721   C147.764603,195.797791 144.514786,192.708466 141.078796,189.342636  z"/>
<path fill="#CCD5DC" opacity="1.000000" stroke="none" d=" M200.879852,86.669189   C200.523209,87.647934 200.128632,88.400520 199.554901,88.973839   C173.275116,115.235313 146.979706,141.481125 120.390076,167.865158   C117.061592,164.949936 114.029129,161.898331 110.961090,158.515503   C111.269806,157.627625 111.521049,156.977829 111.971710,156.527649   C138.145279,130.382263 164.335358,104.253395 190.864456,78.013748   C194.389496,80.722839 197.573914,83.541122 200.879852,86.669189  z"/>
<path fill="#2C3135" opacity="1.000000" stroke="none" d=" M401.755066,394.534241   C404.165375,377.756897 409.572601,372.162598 426.879120,368.185364   C432.129089,376.300110 436.250671,384.967621 437.017273,394.742859   C437.555817,401.609924 434.683960,405.166260 428.031128,403.722595   C419.120697,401.789001 410.640228,397.874207 401.755066,394.534241  z"/>
</svg>
